<svg width="280" height="200" viewBox="0 0 280 200" fill="none" xmlns="http://www.w3.org/2000/svg">
<mask id="mask0_540_423" style="mask-type:alpha" maskUnits="userSpaceOnUse" x="0" y="0" width="280" height="200">
<path fill-rule="evenodd" clip-rule="evenodd" d="M200.775 40C191.185 40 183.733 32.5577 179.994 24.4202C173.402 10.0689 157.978 0 140 0C122.022 0 106.598 10.0689 100.005 24.4202C96.2669 32.5577 88.8149 40 79.2248 40H17.3643C7.77428 40 0 47.1634 0 56V184C0 192.837 7.77429 200 17.3643 200H262.636C272.226 200 280 192.837 280 184V56C280 47.1634 272.226 40 262.636 40H200.775Z" fill="white"/>
</mask>
<g mask="url(#mask0_540_423)">
<path d="M100.005 24.4202L99.0057 24.0303L100.005 24.4202ZM179.994 24.4202L178.995 24.81L179.994 24.4202ZM140 1C157.526 1 172.567 10.8155 178.995 24.81L180.994 24.0304C174.238 9.3223 158.428 -1 140 -1V1ZM101.005 24.81C107.433 10.8155 122.474 1 140 1V-1C121.572 -1 105.762 9.3223 99.0057 24.0303L101.005 24.81ZM17.3643 41H79.2248V39H17.3643V41ZM1.08528 56C1.08528 47.7157 8.37366 41 17.3643 41V39C7.17491 39 -1.08527 46.6112 -1.08527 56H1.08528ZM1.08528 184V56H-1.08527V184H1.08528ZM17.3643 199C8.37368 199 1.08528 192.284 1.08528 184H-1.08527C-1.08527 193.389 7.17492 201 17.3643 201V199ZM262.636 199H17.3643V201H262.636V199ZM278.915 184C278.915 192.284 271.626 199 262.636 199V201C272.825 201 281.085 193.389 281.085 184H278.915ZM278.915 56V184H281.085V56H278.915ZM262.636 41C271.626 41 278.915 47.7157 278.915 56H281.085C281.085 46.6112 272.825 39 262.636 39V41ZM200.775 41H262.636V39H200.775V41ZM99.0057 24.0303C95.3336 32.024 88.1633 39 79.2248 39V41C89.4664 41 97.2003 33.0914 101.005 24.81L99.0057 24.0303ZM178.995 24.81C182.8 33.0914 190.533 41 200.775 41V39C191.837 39 184.666 32.024 180.994 24.0304L178.995 24.81Z" fill="#EEEEEE"/>
</g>
</svg>
