<svg width="11" height="15" viewBox="0 0 11 15" fill="none" xmlns="http://www.w3.org/2000/svg">
<path d="M1 5.87894C1 4.58164 1 3.93299 1.15732 3.40805C1.47527 2.34709 2.24247 1.51529 3.22102 1.17057C3.70519 1 4.30346 1 5.5 1C6.69654 1 7.29481 1 7.77898 1.17057C8.75753 1.51529 9.52473 2.34709 9.84268 3.40805C10 3.93299 10 4.58164 10 5.87894V11.0279C10 12.3641 10 13.0322 9.78017 13.3855C9.51162 13.8172 9.04357 14.0506 8.56652 13.9907C8.17602 13.9418 7.70815 13.507 6.77241 12.6374C6.36051 12.2546 6.15457 12.0632 5.92834 11.9765C5.65118 11.8703 5.34882 11.8703 5.07166 11.9765C4.84543 12.0632 4.63949 12.2546 4.22759 12.6374C3.29185 13.507 2.82398 13.9418 2.43348 13.9907C1.95643 14.0506 1.48838 13.8172 1.21983 13.3855C1 13.0322 1 12.3641 1 11.0279V5.87894Z" stroke="#879099"/>
</svg>
