<svg width="31" height="31" viewBox="0 0 31 31" fill="none" xmlns="http://www.w3.org/2000/svg">
<path d="M23.6588 15.3003L22.9397 15.087L23.6588 15.3003ZM22.578 18.9437L23.297 19.157L22.578 18.9437ZM7.42204 18.9436L8.14107 18.7303L7.42204 18.9436ZM6.34125 15.3003L5.62222 15.5136L6.34125 15.3003ZM11.6837 24.3853L11.8912 23.6646H11.8912L11.6837 24.3853ZM8.57099 22.0619L7.93903 22.4658L8.57099 22.0619ZM21.429 22.0619L22.061 22.4658L21.429 22.0619ZM18.3163 24.3853L18.1088 23.6646L18.3163 24.3853ZM24.7603 11.4V10.65H24.1714L24.0317 11.222L24.7603 11.4ZM5.23973 11.4V10.65H4.28447L4.51115 11.578L5.23973 11.4ZM4 10.65C3.58579 10.65 3.25 10.9858 3.25 11.4C3.25 11.8142 3.58579 12.15 4 12.15V10.65ZM26 12.15C26.4142 12.15 26.75 11.8142 26.75 11.4C26.75 10.9858 26.4142 10.65 26 10.65V12.15ZM17.95 15.8C17.95 15.3858 17.6142 15.05 17.2 15.05C16.7858 15.05 16.45 15.3858 16.45 15.8H17.95ZM16.45 20.2C16.45 20.6142 16.7858 20.95 17.2 20.95C17.6142 20.95 17.95 20.6142 17.95 20.2H16.45ZM18.8304 6.46967C18.5375 6.17678 18.0626 6.17678 17.7697 6.46967C17.4768 6.76256 17.4768 7.23744 17.7697 7.53033L18.8304 6.46967ZM12.4972 7.53035C12.7901 7.23745 12.7901 6.76258 12.4972 6.46969C12.2043 6.17679 11.7295 6.17679 11.4366 6.46969L12.4972 7.53035ZM13.55 15.8C13.55 15.3858 13.2142 15.05 12.8 15.05C12.3858 15.05 12.05 15.3858 12.05 15.8H13.55ZM12.05 20.2C12.05 20.6142 12.3858 20.95 12.8 20.95C13.2142 20.95 13.55 20.6142 13.55 20.2H12.05ZM22.9397 15.087L21.8589 18.7304L23.297 19.157L24.3778 15.5136L22.9397 15.087ZM8.14107 18.7303L7.06028 15.087L5.62222 15.5136L6.70301 19.1569L8.14107 18.7303ZM15 23.85C13.2387 23.85 12.5105 23.8429 11.8912 23.6646L11.4762 25.1061C12.3483 25.3571 13.3338 25.35 15 25.35V23.85ZM6.70301 19.1569C7.17688 20.7544 7.45033 21.7012 7.93903 22.4658L9.20294 21.658C8.85591 21.115 8.64196 20.4189 8.14107 18.7303L6.70301 19.1569ZM11.8912 23.6646C10.7809 23.345 9.82516 22.6316 9.20294 21.658L7.93903 22.4658C8.75775 23.7468 10.0153 24.6855 11.4762 25.1061L11.8912 23.6646ZM21.8589 18.7304C21.358 20.4189 21.1441 21.115 20.7971 21.658L22.061 22.4658C22.5497 21.7012 22.8231 20.7544 23.297 19.157L21.8589 18.7304ZM15 25.35C16.6662 25.35 17.6517 25.3571 18.5238 25.1061L18.1088 23.6646C17.4895 23.8429 16.7613 23.85 15 23.85V25.35ZM20.7971 21.658C20.1748 22.6316 19.2191 23.345 18.1088 23.6646L18.5238 25.1061C19.9847 24.6855 21.2423 23.7468 22.061 22.4658L20.7971 21.658ZM24.3778 15.5136C24.8418 13.9496 25.2246 12.6597 25.4888 11.578L24.0317 11.222C23.7781 12.2602 23.4075 13.5103 22.9397 15.087L24.3778 15.5136ZM7.06028 15.087C6.59254 13.5103 6.2219 12.2602 5.96831 11.222L4.51115 11.578C4.77537 12.6597 5.15825 13.9496 5.62222 15.5136L7.06028 15.087ZM16.45 15.8V20.2H17.95V15.8H16.45ZM12.05 15.8V20.2H13.55V15.8H12.05ZM17.7697 7.53033L22.1697 11.9303L23.2304 10.8697L18.8304 6.46967L17.7697 7.53033ZM22.7001 12.15H24.9V10.65H22.7001V12.15ZM24.9 12.15H26V10.65H24.9V12.15ZM24.7603 12.15H24.9V10.65H24.7603V12.15ZM4 12.15H7.56691V10.65H4V12.15ZM7.56691 12.15H22.7001V10.65H7.56691V12.15ZM11.4366 6.46969L7.03658 10.8697L8.09724 11.9303L12.4972 7.53035L11.4366 6.46969ZM5.23973 12.15H7.56691V10.65H5.23973V12.15Z" fill="#353535"/>
</svg>
