<svg width="14" height="13" viewBox="0 0 14 13" fill="none" xmlns="http://www.w3.org/2000/svg">
<path d="M1.48701 0.886771C1.42448 0.617802 1.15574 0.450455 0.886771 0.51299C0.617802 0.575524 0.450455 0.844261 0.51299 1.11323L1.48701 0.886771ZM3.65895 9.87122L3.97339 9.48247L3.65895 9.87122ZM2.12776 5.95105L2.61579 5.84228L2.12776 5.95105ZM3.55857 9.78609L3.89074 9.41237L3.55857 9.78609ZM12.7275 6.24552L13.2155 6.35429L12.7275 6.24552ZM11.5394 9.6145L11.1764 9.27065L11.5394 9.6145ZM11.0655 10.0164L11.3447 10.4312L11.0655 10.0164ZM12.6845 3.85358L13.0406 3.50265L12.6845 3.85358ZM12.8863 4.12879L13.3274 3.89329L12.8863 4.12879ZM8.2533 5.9C7.97716 5.9 7.7533 6.12386 7.7533 6.4C7.7533 6.67614 7.97716 6.9 8.2533 6.9V5.9ZM9.92712 7.7C9.65098 7.7 9.42712 7.92386 9.42712 8.2C9.42712 8.47614 9.65098 8.7 9.92712 8.7V7.7ZM1.58736 4.02632H10.7333V3.02632H1.58736V4.02632ZM7.74203 9.97368H7.46044V10.9737H7.74203V9.97368ZM2.61579 5.84228L2.07539 3.41755L1.09934 3.63508L1.63974 6.05981L2.61579 5.84228ZM2.07437 3.41309L1.48701 0.886771L0.51299 1.11323L1.10035 3.63954L2.07437 3.41309ZM7.46044 9.97368C6.42888 9.97368 5.70128 9.97278 5.13686 9.90224C4.58762 9.83359 4.24776 9.70439 3.97339 9.48247L3.34451 10.26C3.81499 10.6405 4.357 10.8125 5.01285 10.8945C5.65352 10.9746 6.45424 10.9737 7.46044 10.9737V9.97368ZM1.63974 6.05981C1.87477 7.11441 2.05916 7.94496 2.27854 8.58938C2.50121 9.24346 2.77679 9.76019 3.22641 10.1598L3.89074 9.41237C3.62195 9.17347 3.4196 8.83818 3.22519 8.26712C3.0275 7.6864 2.85569 6.9187 2.61579 5.84228L1.63974 6.05981ZM3.97339 9.48247C3.94537 9.45981 3.91781 9.43644 3.89074 9.41237L3.22641 10.1598C3.26503 10.1941 3.30441 10.2275 3.34451 10.26L3.97339 9.48247ZM7.74203 10.9737C8.61255 10.9737 9.30535 10.9744 9.8642 10.9136C10.435 10.8515 10.9135 10.7215 11.3447 10.4312L10.7862 9.60166C10.5383 9.76855 10.2366 9.8672 9.75609 9.91945C9.26372 9.973 8.63437 9.97368 7.74203 9.97368V10.9737ZM11.1764 9.27065C11.0572 9.39644 10.9263 9.50732 10.7862 9.60166L11.3447 10.4312C11.5467 10.2952 11.7336 10.1366 11.9024 9.95835L11.1764 9.27065ZM10.7333 4.02632C11.2901 4.02632 11.6584 4.02733 11.9301 4.06297C12.1899 4.09707 12.2785 4.15396 12.3283 4.20452L13.0406 3.50265C12.768 3.22594 12.4239 3.1192 12.0602 3.07147C11.7083 3.0253 11.2623 3.02632 10.7333 3.02632V4.02632ZM13.2155 6.35429C13.3394 5.79832 13.4424 5.33979 13.4818 4.96927C13.5218 4.59231 13.5065 4.22877 13.3274 3.89329L12.4452 4.36429C12.4869 4.44232 12.5186 4.56941 12.4874 4.86357C12.4554 5.16417 12.3686 5.55725 12.2395 6.13676L13.2155 6.35429ZM12.3283 4.20452C12.3734 4.25024 12.413 4.30392 12.4452 4.36429L13.3274 3.89329C13.2508 3.74994 13.1544 3.61816 13.0406 3.50265L12.3283 4.20452ZM12.1589 7.7H9.92712V8.7H12.1589V7.7ZM12.693 5.9L8.2533 5.9V6.9L12.693 6.9L12.693 5.9ZM12.2395 6.13676C12.2278 6.18899 12.2163 6.24043 12.205 6.29114L13.181 6.50886C13.1924 6.45804 13.2039 6.40651 13.2155 6.35429L12.2395 6.13676ZM12.205 6.29114C12.0389 7.03582 11.9099 7.60351 11.775 8.05759L12.7336 8.34241C12.8803 7.84852 13.0169 7.24458 13.181 6.50886L12.205 6.29114ZM11.775 8.05759C11.5932 8.66935 11.4162 9.01748 11.1764 9.27065L11.9024 9.95835C12.3013 9.53715 12.5345 9.01242 12.7336 8.34241L11.775 8.05759ZM12.1589 8.7H12.2543V7.7H12.1589V8.7Z" fill="#879099"/>
<path d="M6.2857 12.3684C6.2857 12.7172 6.02275 13 5.69839 13C5.37403 13 5.11108 12.7172 5.11108 12.3684C5.11108 12.0196 5.37403 11.7368 5.69839 11.7368C6.02275 11.7368 6.2857 12.0196 6.2857 12.3684Z" fill="#879099"/>
<path d="M9.80954 12.3684C9.80954 12.7172 9.54659 13 9.22223 13C8.89787 13 8.63493 12.7172 8.63493 12.3684C8.63493 12.0196 8.89787 11.7368 9.22223 11.7368C9.54659 11.7368 9.80954 12.0196 9.80954 12.3684Z" fill="#879099"/>
</svg>
