<svg width="22" height="23" viewBox="0 0 22 23" fill="none" xmlns="http://www.w3.org/2000/svg">
<path d="M20.4873 0.996654C20.4854 0.582445 20.1482 0.24816 19.734 0.250008C19.3197 0.251856 18.9855 0.589137 18.9873 1.00335L18.9962 2.98906C18.9998 3.79848 19.0011 4.34217 18.9562 4.75351L18.9545 4.76877C18.498 4.26696 17.9947 3.80854 17.4515 3.40038C15.6546 2.05032 13.4197 1.25 11 1.25C5.06294 1.25 0.25 6.06294 0.25 12C0.25 17.9371 5.06294 22.75 11 22.75C16.9371 22.75 21.75 17.9371 21.75 12C21.75 11.5858 21.4142 11.25 21 11.25C20.5858 11.25 20.25 11.5858 20.25 12C20.25 17.1086 16.1086 21.25 11 21.25C5.89137 21.25 1.75 17.1086 1.75 12C1.75 6.89137 5.89137 2.75 11 2.75C13.0836 2.75 15.0044 3.43804 16.5505 4.59962C17.0494 4.97451 17.5093 5.39871 17.9228 5.86494C17.8945 5.86873 17.8649 5.87232 17.834 5.8757C17.4226 5.92062 16.8789 5.91933 16.0695 5.91572L14.0838 5.90686C13.6696 5.90501 13.3323 6.2393 13.3305 6.65351C13.3286 7.06772 13.6629 7.405 14.0771 7.40685L16.1061 7.4159C16.861 7.41929 17.4906 7.42211 17.9968 7.36684C18.5277 7.30886 19.0171 7.17926 19.4421 6.85029C19.5129 6.79553 19.5809 6.73738 19.6458 6.67607C19.7487 6.57891 19.844 6.47382 19.9307 6.36169C20.2597 5.93661 20.3893 5.44728 20.4473 4.91635C20.5026 4.41017 20.4997 3.7806 20.4964 3.02573L20.4873 0.996654Z" fill="#404751"/>
<path d="M10 8.25C8.48122 8.25 7.25 9.48122 7.25 11V12C7.25 12.9665 8.0335 13.75 9 13.75H13C13.1381 13.75 13.25 13.8619 13.25 14V15C13.25 15.6904 12.6904 16.25 12 16.25H8C7.58579 16.25 7.25 16.5858 7.25 17C7.25 17.4142 7.58579 17.75 8 17.75H12C13.5188 17.75 14.75 16.5188 14.75 15V14C14.75 13.0335 13.9665 12.25 13 12.25H9C8.86193 12.25 8.75 12.1381 8.75 12V11C8.75 10.3096 9.30964 9.75 10 9.75H13.76C14.1742 9.75 14.51 9.41421 14.51 9C14.51 8.58579 14.1742 8.25 13.76 8.25H10Z" fill="#404751"/>
</svg>
