<svg width="14" height="14" viewBox="0 0 14 14" fill="none" xmlns="http://www.w3.org/2000/svg">
<path d="M3.73605 2.73358C5.26143 1.60094 6.02412 1.03462 6.89515 1.00196C6.96503 0.999345 7.03497 0.999345 7.10485 1.00196C7.97588 1.03462 8.73857 1.60094 10.264 2.73358C11.7893 3.86622 12.552 4.43254 12.8516 5.26907C12.8756 5.33618 12.8972 5.40416 12.9164 5.47289C13.1552 6.3296 12.8638 7.24593 12.2812 9.07858L11.2968 12.1749C11.1404 12.6669 10.6918 13 10.1856 13C9.54033 13 9.01723 12.4654 9.01723 11.8059V10.199C9.01723 9.5802 8.52641 9.07858 7.92095 9.07858H6.07906C5.47359 9.07858 4.98277 9.5802 4.98277 10.199V11.8059C4.98277 12.4654 4.45967 13 3.8144 13C3.30824 13 2.85963 12.6669 2.70322 12.1749L1.71882 9.07858C1.13617 7.24593 0.84485 6.3296 1.08362 5.47289C1.10278 5.40416 1.12439 5.33618 1.14842 5.26907C1.44797 4.43254 2.21067 3.86622 3.73605 2.73358Z" stroke="#879099"/>
</svg>
