<svg width="14" height="14" viewBox="0 0 14 14" fill="none" xmlns="http://www.w3.org/2000/svg">
<path d="M5.66667 13V12.5V13ZM5 13V13.5V13ZM1 9H1.5H1ZM1 5H0.5H1ZM5 1V0.5V1ZM5.66667 1V1.5V1ZM1.04104 3.81188L0.547195 3.73367L0.547194 3.73367L1.04104 3.81188ZM3.81189 1.04104L3.8901 1.53488L3.81189 1.04104ZM3.81188 12.959L3.73367 13.4528H3.73367L3.81188 12.959ZM1.04104 10.1881L0.547194 10.2663L0.547194 10.2663L1.04104 10.1881ZM7.96696 12.7334C8.18775 12.5675 8.2323 12.2541 8.06645 12.0333C7.90061 11.8125 7.58717 11.768 7.36638 11.9338L7.96696 12.7334ZM7.36638 2.06621C7.58717 2.23205 7.90061 2.18751 8.06645 1.96671C8.2323 1.74592 8.18775 1.43248 7.96696 1.26664L7.36638 2.06621ZM3.66667 6.5C3.39052 6.5 3.16667 6.72386 3.16667 7C3.16667 7.27614 3.39052 7.5 3.66667 7.5V6.5ZM12.3333 7V7.5V7ZM10.644 3.94154C10.4276 3.76998 10.1131 3.80631 9.94154 4.02269C9.76998 4.23907 9.80631 4.55356 10.0227 4.72512L10.644 3.94154ZM11.5086 5.26523L11.8193 4.87344L11.5086 5.26523ZM11.5086 8.73477L11.8193 9.12656V9.12656L11.5086 8.73477ZM10.0227 9.27488C9.80631 9.44644 9.76998 9.76093 9.94154 9.97731C10.1131 10.1937 10.4276 10.23 10.644 10.0585L10.0227 9.27488ZM12.9867 6.83289L13.4805 6.75422V6.75422L12.9867 6.83289ZM12.9867 7.16711L13.4805 7.24578V7.24578L12.9867 7.16711ZM13 7H13.5H13ZM5.66667 12.5H5V13.5H5.66667V12.5ZM1.5 9L1.5 5H0.5L0.5 9H1.5ZM5 1.5H5.66667V0.5L5 0.5V1.5ZM1.5 5C1.5 4.36156 1.50155 4.10055 1.53488 3.8901L0.547194 3.73367C0.498448 4.04144 0.5 4.39977 0.5 5H1.5ZM5 0.5C4.39977 0.5 4.04144 0.498448 3.73367 0.547195L3.8901 1.53488C4.10055 1.50155 4.36156 1.5 5 1.5V0.5ZM1.53488 3.8901C1.7269 2.67774 2.67774 1.7269 3.8901 1.53488L3.73367 0.547195C2.09341 0.806985 0.806986 2.09341 0.547195 3.73367L1.53488 3.8901ZM5 12.5C4.36156 12.5 4.10055 12.4984 3.8901 12.4651L3.73367 13.4528C4.04144 13.5016 4.39977 13.5 5 13.5V12.5ZM0.5 9C0.5 9.60023 0.498448 9.95856 0.547194 10.2663L1.53488 10.1099C1.50155 9.89945 1.5 9.63844 1.5 9H0.5ZM3.8901 12.4651C2.67774 12.2731 1.7269 11.3223 1.53488 10.1099L0.547194 10.2663C0.806985 11.9066 2.09341 13.193 3.73367 13.4528L3.8901 12.4651ZM5.66667 13.5C6.52906 13.5 7.32624 13.2146 7.96696 12.7334L7.36638 11.9338C6.89288 12.2894 6.30508 12.5 5.66667 12.5V13.5ZM5.66667 1.5C6.30509 1.5 6.89288 1.71055 7.36638 2.06621L7.96696 1.26664C7.32624 0.785376 6.52906 0.5 5.66667 0.5V1.5ZM3.66667 7.5L12.3333 7.5V6.5L3.66667 6.5V7.5ZM10.0227 4.72512L11.198 5.65702L11.8193 4.87344L10.644 3.94154L10.0227 4.72512ZM11.198 8.34298L10.0227 9.27488L10.644 10.0585L11.8193 9.12656L11.198 8.34298ZM11.198 5.65702C11.6762 6.03619 12.0008 6.29451 12.2192 6.51215C12.4355 6.72755 12.4817 6.84077 12.493 6.91156L13.4805 6.75422C13.4196 6.3721 13.1954 6.07308 12.925 5.80368C12.6568 5.5365 12.2784 5.23744 11.8193 4.87344L11.198 5.65702ZM11.8193 9.12656C12.2784 8.76256 12.6568 8.4635 12.925 8.19632C13.1954 7.92692 13.4196 7.6279 13.4805 7.24578L12.493 7.08844C12.4817 7.15923 12.4355 7.27245 12.2192 7.48786C12.0008 7.70549 11.6762 7.96381 11.198 8.34298L11.8193 9.12656ZM12.493 6.91156C12.4977 6.94112 12.5 6.97063 12.5 7L13.5 7C13.5 6.91774 13.4935 6.83563 13.4805 6.75422L12.493 6.91156ZM12.5 7C12.5 7.02937 12.4977 7.05888 12.493 7.08844L13.4805 7.24578C13.4935 7.16438 13.5 7.08226 13.5 7L12.5 7ZM12.3333 7.5H13V6.5H12.3333V7.5Z" fill="#DC5151"/>
</svg>
