<svg width="31" height="31" viewBox="0 0 31 31" fill="none" xmlns="http://www.w3.org/2000/svg">
<path d="M21.1018 21.0412C20.809 20.7483 20.3341 20.7483 20.0412 21.0412C19.7483 21.3341 19.7483 21.809 20.0412 22.1019L21.1018 21.0412ZM23.4697 25.5304C23.7626 25.8233 24.2374 25.8233 24.5303 25.5304C24.8232 25.2375 24.8232 24.7626 24.5303 24.4697L23.4697 25.5304ZM12.304 10.365C12.7131 10.3002 12.9923 9.91598 12.9275 9.50687C12.8627 9.09775 12.4785 8.81863 12.0694 8.88343L12.304 10.365ZM7.8834 13.0694C7.8186 13.4785 8.09773 13.8627 8.50684 13.9275C8.91596 13.9923 9.30014 13.7132 9.36493 13.304L7.8834 13.0694ZM20.0412 22.1019L23.4697 25.5304L24.5303 24.4697L21.1018 21.0412L20.0412 22.1019ZM13.7143 21.6786C9.86802 21.6786 6.75 18.5606 6.75 14.7143H5.25C5.25 19.389 9.0396 23.1786 13.7143 23.1786V21.6786ZM20.6786 14.7143C20.6786 18.5606 17.5606 21.6786 13.7143 21.6786V23.1786C18.389 23.1786 22.1786 19.389 22.1786 14.7143H20.6786ZM13.7143 7.75C17.5606 7.75 20.6786 10.868 20.6786 14.7143H22.1786C22.1786 10.0396 18.389 6.25 13.7143 6.25V7.75ZM13.7143 6.25C9.0396 6.25 5.25 10.0396 5.25 14.7143H6.75C6.75 10.868 9.86802 7.75 13.7143 7.75V6.25ZM12.0694 8.88343C9.91462 9.22471 8.22468 10.9146 7.8834 13.0694L9.36493 13.304C9.60456 11.7911 10.7911 10.6046 12.304 10.365L12.0694 8.88343Z" fill="#353535"/>
</svg>
