<svg width="23" height="23" viewBox="0 0 23 23" fill="none" xmlns="http://www.w3.org/2000/svg">
<path d="M18.5304 17.4698C18.2375 17.1769 17.7626 17.1769 17.4697 17.4698C17.1768 17.7626 17.1768 18.2375 17.4697 18.5304L18.5304 17.4698ZM21.4696 22.5304C21.7625 22.8233 22.2374 22.8233 22.5303 22.5304C22.8232 22.2375 22.8232 21.7626 22.5303 21.4697L21.4696 22.5304ZM8.33512 4.80232C8.74423 4.73752 9.02336 4.35334 8.95856 3.94423C8.89376 3.53511 8.50958 3.25599 8.10047 3.32079L8.33512 4.80232ZM3.32076 8.1005C3.25596 8.50961 3.53508 8.89379 3.9442 8.95859C4.35331 9.02339 4.73749 8.74426 4.80229 8.33515L3.32076 8.1005ZM17.4697 18.5304L21.4696 22.5304L22.5303 21.4697L18.5304 17.4698L17.4697 18.5304ZM10 18.25C5.44365 18.25 1.75 14.5563 1.75 10H0.25C0.25 15.3848 4.61522 19.75 10 19.75V18.25ZM18.25 10C18.25 14.5563 14.5563 18.25 10 18.25V19.75C15.3848 19.75 19.75 15.3848 19.75 10H18.25ZM10 1.75C14.5563 1.75 18.25 5.44365 18.25 10H19.75C19.75 4.61522 15.3848 0.25 10 0.25V1.75ZM10 0.25C4.61522 0.25 0.25 4.61522 0.25 10H1.75C1.75 5.44365 5.44365 1.75 10 1.75V0.25ZM8.10047 3.32079C5.64008 3.71047 3.71044 5.64012 3.32076 8.1005L4.80229 8.33515C5.09032 6.51661 6.51658 5.09035 8.33512 4.80232L8.10047 3.32079Z" fill="#404751"/>
</svg>
