<svg width="14" height="14" viewBox="0 0 14 14" fill="none" xmlns="http://www.w3.org/2000/svg">
<path d="M3.2823 3.25443L3.17608 3.74301L3.2823 3.25443ZM5.48602 2.15102L5.01108 1.99472L5.48602 2.15102ZM1.52332 5.89659L1.85694 5.52417L1.52332 5.89659ZM1.52332 8.10341L1.1897 7.73099H1.1897L1.52332 8.10341ZM3.2823 10.7456L3.38851 11.2342L3.2823 10.7456ZM5.48602 11.849L5.01108 12.0053L5.48602 11.849ZM9.00398 11.849L9.47892 12.0053L9.00398 11.849ZM11.2077 10.7456L11.3139 10.257L11.2077 10.7456ZM12.9667 8.10341L12.6331 8.47583L12.9667 8.10341ZM12.9667 5.89659L12.6331 5.52417L12.9667 5.89659ZM11.2077 3.25443L11.1015 2.76584L11.2077 3.25443ZM9.00398 2.15101L9.47892 1.99472L9.00398 2.15101ZM3.17608 3.74301C4.334 3.99473 5.59501 3.4194 5.96097 2.30731L5.01108 1.99472C4.83522 2.52914 4.1457 2.93044 3.38851 2.76584L3.17608 3.74301ZM1.85694 5.52417C1.4168 5.12989 1.41952 4.65275 1.66961 4.27708C1.93088 3.88463 2.4823 3.5922 3.17608 3.74301L3.38851 2.76584C2.29724 2.52861 1.32916 2.98394 0.837201 3.72292C0.334065 4.47868 0.349815 5.51664 1.1897 6.26901L1.85694 5.52417ZM1.85694 8.47583C2.76542 7.66201 2.76542 6.33799 1.85694 5.52417L1.1897 6.26901C1.6545 6.68538 1.6545 7.31462 1.1897 7.73099L1.85694 8.47583ZM3.17608 10.257C2.4823 10.4078 1.93088 10.1154 1.66961 9.72292C1.41952 9.34725 1.4168 8.87011 1.85694 8.47583L1.1897 7.73099C0.349814 8.48336 0.334064 9.52132 0.837201 10.2771C1.32916 11.0161 2.29724 11.4714 3.38851 11.2342L3.17608 10.257ZM5.96097 11.6927C5.59501 10.5806 4.334 10.0053 3.17608 10.257L3.38851 11.2342C4.1457 11.0696 4.83522 11.4709 5.01108 12.0053L5.96097 11.6927ZM8.52903 11.6927C8.36299 12.1973 7.84994 12.5 7.245 12.5C6.64006 12.5 6.12701 12.1973 5.96097 11.6927L5.01108 12.0053C5.35006 13.0354 6.34348 13.5 7.245 13.5C8.14653 13.5 9.13994 13.0354 9.47892 12.0053L8.52903 11.6927ZM11.3139 10.257C10.156 10.0053 8.89499 10.5806 8.52903 11.6927L9.47892 12.0053C9.65478 11.4709 10.3443 11.0696 11.1015 11.2342L11.3139 10.257ZM12.6331 8.47583C13.0732 8.87011 13.0705 9.34725 12.8204 9.72292C12.5591 10.1154 12.0077 10.4078 11.3139 10.257L11.1015 11.2342C12.1928 11.4714 13.1608 11.0161 13.6528 10.2771C14.1559 9.52132 14.1402 8.48336 13.3003 7.73099L12.6331 8.47583ZM12.6331 5.52417C11.7246 6.33799 11.7246 7.66201 12.6331 8.47583L13.3003 7.73099C12.8355 7.31462 12.8355 6.68538 13.3003 6.26901L12.6331 5.52417ZM11.3139 3.74301C12.0077 3.5922 12.5591 3.88463 12.8204 4.27708C13.0705 4.65275 13.0732 5.12989 12.6331 5.52417L13.3003 6.26901C14.1402 5.51664 14.1559 4.47868 13.6528 3.72292C13.1608 2.98394 12.1928 2.52861 11.1015 2.76584L11.3139 3.74301ZM8.52903 2.30731C8.89499 3.4194 10.156 3.99473 11.3139 3.74301L11.1015 2.76584C10.3443 2.93044 9.65478 2.52914 9.47892 1.99472L8.52903 2.30731ZM9.47892 1.99472C9.13994 0.964615 8.14653 0.5 7.245 0.5C6.34347 0.5 5.35006 0.964616 5.01108 1.99472L5.96097 2.30731C6.12701 1.80273 6.64006 1.5 7.245 1.5C7.84994 1.5 8.36299 1.80273 8.52903 2.30731L9.47892 1.99472ZM4.78587 7C4.78587 8.27898 5.9561 9.19903 7.245 9.19903V8.19903C6.36991 8.19903 5.78587 7.59772 5.78587 7H4.78587ZM7.245 9.19903C8.5339 9.19903 9.70413 8.27898 9.70413 7H8.70413C8.70413 7.59772 8.12009 8.19903 7.245 8.19903V9.19903ZM9.70413 7C9.70413 5.72102 8.5339 4.80096 7.245 4.80096V5.80096C8.12009 5.80096 8.70413 6.40228 8.70413 7H9.70413ZM7.245 4.80096C5.9561 4.80096 4.78587 5.72102 4.78587 7H5.78587C5.78587 6.40228 6.36991 5.80096 7.245 5.80096V4.80096Z" fill="#879099"/>
</svg>
