<svg width="24" height="23" viewBox="0 0 24 23" fill="none" xmlns="http://www.w3.org/2000/svg">
<path d="M13.9999 6.88603C14.3226 7.83867 15.2481 8.48366 16.2924 8.48366M5.09779 6.01471C6.66983 6.01471 8.06308 5.00245 8.54887 3.50736C9.63512 0.164215 14.3648 0.164215 15.451 3.50736C15.9368 5.00245 17.3301 6.01471 18.9021 6.01471C22.4173 6.01471 23.8788 10.5129 21.035 12.579C19.7632 13.5031 19.231 15.1409 19.7168 16.636C20.803 19.9792 16.9767 22.7592 14.1328 20.693C12.861 19.769 11.1389 19.769 9.86706 20.693C7.02322 22.7592 3.19685 19.9792 4.2831 16.636C4.76889 15.1409 4.23671 13.5031 2.96491 12.579C0.121064 10.5129 1.58261 6.01471 5.09779 6.01471Z" stroke="#404751" stroke-width="1.5" stroke-linecap="round"/>
</svg>
