<svg width="14" height="14" viewBox="0 0 14 14" fill="none" xmlns="http://www.w3.org/2000/svg">
<path d="M2.43723 12.5612L2.69861 12.135L2.43723 12.5612ZM1.44724 11.5705L1.87365 11.3094L1.44724 11.5705ZM12.5581 11.5705L12.1317 11.3094L12.5581 11.5705ZM11.5681 12.5612L11.3067 12.135L11.5681 12.5612ZM11.5681 3.24272L11.3067 3.66895L11.5681 3.24272ZM12.5581 4.23343L12.1317 4.49454L12.5581 4.23343ZM2.43723 3.24272L2.69861 3.66895H2.69861L2.43723 3.24272ZM1.44724 4.23343L1.87365 4.49454L1.44724 4.23343ZM10.887 1.32796L11.248 0.98198V0.98198L10.887 1.32796ZM2.1114 1.53463L2.41344 1.93309L2.1114 1.53463ZM1.5178 2.15393L1.92811 2.43967L1.5178 2.15393ZM11.2008 2.87873H11.7008L11.7008 2.87626L11.2008 2.87873ZM10.8192 8.02005C11.0953 8.02005 11.3192 7.79619 11.3192 7.52005C11.3192 7.24391 11.0953 7.02005 10.8192 7.02005V8.02005ZM9.18352 7.02005C8.90738 7.02005 8.68352 7.24391 8.68352 7.52005C8.68352 7.79619 8.90738 8.02005 9.18352 8.02005V7.02005ZM6.10308 3.30051H7.90228V2.30051H6.10308V3.30051ZM7.90228 12.5034H6.10308V13.5034H7.90228V12.5034ZM6.10308 12.5034C5.1118 12.5034 4.40348 12.5029 3.85173 12.4504C3.30743 12.3986 2.96737 12.2998 2.69861 12.135L2.17584 12.9875C2.62817 13.2648 3.13944 13.3871 3.75701 13.4459C4.36712 13.504 5.13118 13.5034 6.10308 13.5034V12.5034ZM0.505361 7.90197C0.505361 8.8746 0.504835 9.63917 0.562838 10.2497C0.621547 10.8676 0.74372 11.3791 1.02084 11.8316L1.87365 11.3094C1.70888 11.0403 1.61012 10.6999 1.55835 10.1551C1.50589 9.60285 1.50536 8.89395 1.50536 7.90197H0.505361ZM2.69861 12.135C2.36242 11.9288 2.07971 11.6459 1.87365 11.3094L1.02084 11.8316C1.30929 12.3027 1.70506 12.6988 2.17584 12.9875L2.69861 12.135ZM7.90228 13.5034C8.87418 13.5034 9.63824 13.504 10.2484 13.4459C10.8659 13.3871 11.3772 13.2648 11.8295 12.9875L11.3067 12.135C11.038 12.2998 10.6979 12.3986 10.1536 12.4504C9.60188 12.5029 8.89356 12.5034 7.90228 12.5034V13.5034ZM12.1317 11.3094C11.9256 11.6459 11.6429 11.9288 11.3067 12.135L11.8295 12.9875C12.3003 12.6988 12.6961 12.3027 12.9845 11.8316L12.1317 11.3094ZM11.3067 3.66895C11.6429 3.87513 11.9256 4.15802 12.1317 4.49454L12.9845 3.97232C12.6961 3.50127 12.3003 3.10519 11.8295 2.81648L11.3067 3.66895ZM6.10308 2.30051C5.13118 2.30051 4.36712 2.29999 3.75701 2.35804C3.13944 2.4168 2.62817 2.53909 2.17584 2.81648L2.69861 3.66895C2.96737 3.50414 3.30743 3.40533 3.85173 3.35354C4.40348 3.30104 5.1118 3.30051 6.10308 3.30051V2.30051ZM1.50536 7.90197C1.50536 6.90999 1.50589 6.20108 1.55835 5.64886C1.61012 5.10407 1.70888 4.7636 1.87365 4.49454L1.02084 3.97232C0.74372 4.42486 0.621547 4.93636 0.562838 5.55428C0.504835 6.16477 0.505361 6.92933 0.505361 7.90197H1.50536ZM2.17584 2.81648C1.70506 3.10519 1.30929 3.50127 1.02084 3.97232L1.87365 4.49454C2.07971 4.15802 2.36242 3.87513 2.69861 3.66895L2.17584 2.81648ZM5.83505 1.5H9.05484V0.5H5.83505V1.5ZM9.05484 1.5C9.57551 1.5 9.91356 1.50115 10.163 1.53615C10.3959 1.56881 10.4763 1.62202 10.526 1.67395L11.248 0.98198C10.9834 0.705943 10.6536 0.595173 10.302 0.545843C9.9669 0.498846 9.54605 0.5 9.05484 0.5V1.5ZM5.83505 0.5C4.84054 0.5 4.05278 0.499254 3.42697 0.569992C2.79049 0.641936 2.26222 0.792893 1.80936 1.13616L2.41344 1.93309C2.66588 1.74173 2.99332 1.62538 3.53929 1.56366C4.09592 1.50075 4.81732 1.5 5.83505 1.5V0.5ZM1.50536 6.03881C1.50536 4.97845 1.50599 4.22169 1.56674 3.6367C1.62664 3.05988 1.74046 2.70912 1.92811 2.43967L1.10749 1.86819C0.782696 2.33459 0.640299 2.8766 0.57209 3.53341C0.50473 4.18206 0.505361 4.99982 0.505361 6.03881H1.50536ZM1.80936 1.13616C1.53924 1.34091 1.30254 1.5881 1.10749 1.86819L1.92811 2.43967C2.06405 2.24446 2.22798 2.07366 2.41344 1.93309L1.80936 1.13616ZM11.7008 2.87626C11.6988 2.47057 11.6902 2.11465 11.6386 1.81821C11.5847 1.50909 11.4774 1.22134 11.248 0.98198L10.526 1.67395C10.5729 1.72285 10.6205 1.80058 10.6534 1.98982C10.6886 2.19175 10.6988 2.46708 10.7008 2.8812L11.7008 2.87626ZM0.505361 6.03881C0.505361 6.62264 0.493267 7.1608 0.505533 7.61537L1.50517 7.5884C1.49334 7.15014 1.50536 6.65778 1.50536 6.03881H0.505361ZM12.7001 8.65688H9.18352V9.65688H12.7001V8.65688ZM7.04789 7.52005C7.04789 8.69984 8.0037 9.65688 9.18352 9.65688V8.65688C8.55668 8.65688 8.04789 8.14825 8.04789 7.52005H7.04789ZM8.04789 7.52005C8.04789 6.89185 8.55668 6.38322 9.18352 6.38322V5.38322C8.0037 5.38322 7.04789 6.34026 7.04789 7.52005H8.04789ZM10.8192 7.02005H9.18352V8.02005H10.8192V7.02005ZM7.90228 3.30051C8.73326 3.30051 9.36736 3.30073 9.88038 3.33241C10.3929 3.36405 10.7466 3.42556 11.0232 3.53066L11.3784 2.59589C10.9636 2.43823 10.4933 2.36835 9.94202 2.33431C9.39123 2.3003 8.72176 2.30051 7.90228 2.30051V3.30051ZM11.0232 3.53066C11.1266 3.56996 11.2198 3.61565 11.3067 3.66895L11.8295 2.81648C11.6867 2.72891 11.537 2.65617 11.3784 2.59589L11.0232 3.53066ZM10.7008 2.87873V3.06327H11.7008V2.87873H10.7008ZM9.18352 6.38322H12.9667V5.38322H9.18352V6.38322ZM13.5 7.90197C13.5 7.07764 13.5002 6.40497 13.4657 5.85205L12.4676 5.91439C12.4998 6.42911 12.5 7.06597 12.5 7.90197H13.5ZM13.4657 5.85205C13.4185 5.09635 13.304 4.49402 12.9845 3.97232L12.1317 4.49454C12.3226 4.80621 12.4237 5.21112 12.4676 5.91439L13.4657 5.85205ZM12.5 7.90197C12.5 8.37473 12.5 8.78522 12.494 9.14859L13.4938 9.16517C13.5 8.79182 13.5 8.37235 13.5 7.90197H12.5ZM12.494 9.14859C12.4744 10.3251 12.3875 10.8918 12.1317 11.3094L12.9845 11.8316C13.4004 11.1525 13.4746 10.3212 13.4938 9.16517L12.494 9.14859ZM12.7001 9.65688H12.9939V8.65688H12.7001V9.65688Z" fill="#879099"/>
</svg>
